<svg xmlns="http://www.w3.org/2000/svg" xmlns:xlink="http://www.w3.org/1999/xlink" width="500" zoomAndPan="magnify" viewBox="0 0 375 374.999991" height="500" preserveAspectRatio="xMidYMid meet" version="1.0"><defs><clipPath id="cf549de254"><path d="M 0 1 L 375 1 L 375 375 L 0 375 Z M 0 1 " clip-rule="nonzero"/></clipPath><clipPath id="2b18093471"><path d="M 75 1.804688 L 300 1.804688 C 341.421875 1.804688 375 35.382812 375 76.804688 L 375 300 C 375 341.421875 341.421875 375 300 375 L 75 375 C 33.578125 375 0 341.421875 0 300 L 0 76.804688 C 0 35.382812 33.578125 1.804688 75 1.804688 Z M 75 1.804688 " clip-rule="nonzero"/></clipPath><clipPath id="dc0e91a67b"><path d="M 0 0.679688 L 375 0.679688 L 375 374 L 0 374 Z M 0 0.679688 " clip-rule="nonzero"/></clipPath><clipPath id="bc59c067ce"><path d="M 75 0.804688 L 300 0.804688 C 341.421875 0.804688 375 34.382812 375 75.804688 L 375 299 C 375 340.421875 341.421875 374 300 374 L 75 374 C 33.578125 374 0 340.421875 0 299 L 0 75.804688 C 0 34.382812 33.578125 0.804688 75 0.804688 Z M 75 0.804688 " clip-rule="nonzero"/></clipPath><clipPath id="8212a209fe"><rect x="0" width="375" y="0" height="374"/></clipPath><clipPath id="51188ab90c"><path d="M 89.777344 94.011719 L 286.460938 94.011719 L 286.460938 290.695312 L 89.777344 290.695312 Z M 89.777344 94.011719 " clip-rule="nonzero"/></clipPath><clipPath id="42ad10ddad"><path d="M 188.117188 94.011719 C 133.804688 94.011719 89.777344 138.039062 89.777344 192.355469 C 89.777344 246.667969 133.804688 290.695312 188.117188 290.695312 C 242.433594 290.695312 286.460938 246.667969 286.460938 192.355469 C 286.460938 138.039062 242.433594 94.011719 188.117188 94.011719 Z M 188.117188 94.011719 " clip-rule="nonzero"/></clipPath><clipPath id="f5c469c0b1"><path d="M 0.777344 0.0117188 L 197.460938 0.0117188 L 197.460938 196.695312 L 0.777344 196.695312 Z M 0.777344 0.0117188 " clip-rule="nonzero"/></clipPath><clipPath id="7e1eb3be51"><path d="M 99.117188 0.0117188 C 44.804688 0.0117188 0.777344 44.039062 0.777344 98.355469 C 0.777344 152.667969 44.804688 196.695312 99.117188 196.695312 C 153.433594 196.695312 197.460938 152.667969 197.460938 98.355469 C 197.460938 44.039062 153.433594 0.0117188 99.117188 0.0117188 Z M 99.117188 0.0117188 " clip-rule="nonzero"/></clipPath><clipPath id="48c3150a2a"><rect x="0" width="198" y="0" height="197"/></clipPath><clipPath id="e2e3276af5"><path d="M 54 13.003906 L 320.933594 13.003906 L 320.933594 358 L 54 358 Z M 54 13.003906 " clip-rule="nonzero"/></clipPath><clipPath id="20b7cfd546"><path d="M 226 73.707031 L 231 73.707031 L 231 85 L 226 85 Z M 226 73.707031 " clip-rule="nonzero"/></clipPath><clipPath id="28b640040a"><path d="M 232 73.707031 L 237 73.707031 L 237 85 L 232 85 Z M 232 73.707031 " clip-rule="nonzero"/></clipPath><clipPath id="9efd76a80a"><path d="M 237 73.707031 L 242 73.707031 L 242 85 L 237 85 Z M 237 73.707031 " clip-rule="nonzero"/></clipPath><clipPath id="f43b2cacd4"><path d="M 209.445312 87 L 255 87 L 255 129.957031 L 209.445312 129.957031 Z M 209.445312 87 " clip-rule="nonzero"/></clipPath><clipPath id="4e1363f7c7"><path d="M 88.539062 69.023438 L 286.539062 69.023438 L 286.539062 225.023438 L 88.539062 225.023438 Z M 88.539062 69.023438 " clip-rule="nonzero"/></clipPath></defs><g clip-path="url(#cf549de254)"><g clip-path="url(#2b18093471)"><g transform="matrix(1, 0, 0, 1, 0, 1)"><g clip-path="url(#8212a209fe)"><g clip-path="url(#dc0e91a67b)"><g clip-path="url(#bc59c067ce)"><path fill="#ffffff" d="M 0 0.804688 L 374.652344 0.804688 L 374.652344 374 L 0 374 Z M 0 0.804688 " fill-opacity="1" fill-rule="nonzero"/></g></g></g></g></g></g><g clip-path="url(#51188ab90c)"><g clip-path="url(#42ad10ddad)"><g transform="matrix(1, 0, 0, 1, 89, 94)"><g clip-path="url(#48c3150a2a)"><g clip-path="url(#f5c469c0b1)"><g clip-path="url(#7e1eb3be51)"><path fill="#ffffff" d="M 0.777344 0.0117188 L 197.460938 0.0117188 L 197.460938 196.695312 L 0.777344 196.695312 Z M 0.777344 0.0117188 " fill-opacity="1" fill-rule="nonzero"/></g></g></g></g></g></g><g clip-path="url(#e2e3276af5)"><path fill="#007031" d="M 187.46875 13.003906 C 185.289062 13.007812 183.109375 13.0625 180.929688 13.171875 C 178.753906 13.28125 176.578125 13.445312 174.410156 13.660156 C 172.238281 13.875 170.078125 14.144531 167.917969 14.464844 C 165.761719 14.789062 163.613281 15.164062 161.476562 15.589844 C 159.339844 16.015625 157.210938 16.496094 155.097656 17.027344 C 152.980469 17.558594 150.882812 18.140625 148.792969 18.777344 C 146.707031 19.410156 144.640625 20.097656 142.585938 20.832031 C 140.535156 21.570312 138.5 22.355469 136.484375 23.191406 C 134.472656 24.027344 132.480469 24.910156 130.507812 25.84375 C 128.539062 26.777344 126.589844 27.757812 124.667969 28.785156 C 122.746094 29.816406 120.847656 30.890625 118.980469 32.011719 C 117.109375 33.132812 115.265625 34.300781 113.453125 35.511719 C 111.640625 36.726562 109.859375 37.980469 108.109375 39.28125 C 106.355469 40.578125 104.636719 41.921875 102.953125 43.304688 C 101.265625 44.6875 99.617188 46.113281 98 47.578125 C 96.386719 49.042969 94.808594 50.542969 93.265625 52.085938 C 91.722656 53.628906 90.21875 55.207031 88.753906 56.824219 C 87.289062 58.4375 85.867188 60.089844 84.484375 61.773438 C 83.097656 63.460938 81.757812 65.179688 80.457031 66.929688 C 79.160156 68.679688 77.902344 70.464844 76.691406 72.277344 C 75.480469 74.089844 74.3125 75.929688 73.191406 77.800781 C 72.070312 79.671875 70.992188 81.566406 69.964844 83.488281 C 68.9375 85.414062 67.953125 87.359375 67.023438 89.328125 C 66.089844 91.300781 65.203125 93.292969 64.367188 95.308594 C 63.53125 97.320312 62.746094 99.355469 62.011719 101.40625 C 61.273438 103.460938 60.589844 105.53125 59.957031 107.617188 C 59.320312 109.703125 58.738281 111.804688 58.207031 113.917969 C 57.675781 116.035156 57.195312 118.160156 56.769531 120.296875 C 56.339844 122.4375 55.964844 124.585938 55.644531 126.742188 C 55.324219 128.898438 55.054688 131.0625 54.839844 133.230469 C 54.621094 135.402344 54.460938 137.574219 54.351562 139.753906 C 54.242188 141.929688 54.183594 144.109375 54.183594 146.292969 C 54.183594 176.808594 72.664062 213.558594 94.464844 249.886719 C 116.46875 286.421875 142.421875 321.507812 159.441406 343.925781 C 173.355469 361.988281 201.382812 361.988281 215.285156 343.925781 C 232.519531 321.507812 258.472656 286.421875 280.273438 249.886719 C 302.273438 213.558594 320.753906 176.808594 320.753906 146.292969 C 320.753906 144.109375 320.699219 141.929688 320.589844 139.753906 C 320.480469 137.574219 320.316406 135.402344 320.101562 133.230469 C 319.882812 131.0625 319.617188 128.898438 319.292969 126.742188 C 318.972656 124.585938 318.597656 122.4375 318.171875 120.296875 C 317.742188 118.160156 317.265625 116.035156 316.730469 113.917969 C 316.199219 111.804688 315.617188 109.703125 314.984375 107.617188 C 314.347656 105.53125 313.664062 103.460938 312.929688 101.40625 C 312.191406 99.355469 311.40625 97.320312 310.570312 95.308594 C 309.734375 93.292969 308.851562 91.300781 307.917969 89.328125 C 306.984375 87.359375 306.003906 85.414062 304.972656 83.488281 C 303.945312 81.566406 302.871094 79.671875 301.75 77.800781 C 300.625 75.929688 299.460938 74.089844 298.246094 72.277344 C 297.035156 70.464844 295.78125 68.679688 294.480469 66.929688 C 293.179688 65.179688 291.839844 63.460938 290.457031 61.773438 C 289.074219 60.089844 287.648438 58.4375 286.183594 56.824219 C 284.71875 55.207031 283.214844 53.628906 281.675781 52.085938 C 280.132812 50.542969 278.554688 49.042969 276.9375 47.578125 C 275.320312 46.113281 273.671875 44.6875 271.984375 43.304688 C 270.300781 41.921875 268.582031 40.578125 266.832031 39.28125 C 265.078125 37.980469 263.296875 36.726562 261.484375 35.511719 C 259.671875 34.300781 257.832031 33.132812 255.960938 32.011719 C 254.089844 30.890625 252.195312 29.816406 250.269531 28.785156 C 248.347656 27.757812 246.402344 26.777344 244.429688 25.84375 C 242.460938 24.910156 240.46875 24.027344 238.453125 23.191406 C 236.4375 22.355469 234.40625 21.570312 232.351562 20.832031 C 230.300781 20.097656 228.230469 19.410156 226.144531 18.777344 C 224.058594 18.140625 221.957031 17.558594 219.84375 17.027344 C 217.726562 16.496094 215.601562 16.015625 213.460938 15.589844 C 211.324219 15.164062 209.175781 14.789062 207.019531 14.464844 C 204.863281 14.144531 202.699219 13.875 200.527344 13.660156 C 198.359375 13.445312 196.183594 13.28125 194.007812 13.171875 C 191.828125 13.0625 189.648438 13.007812 187.46875 13.003906 Z M 187.46875 36.464844 C 189.265625 36.464844 191.0625 36.507812 192.855469 36.597656 C 194.648438 36.683594 196.441406 36.8125 198.226562 36.988281 C 200.015625 37.164062 201.796875 37.382812 203.574219 37.648438 C 205.351562 37.910156 207.121094 38.214844 208.882812 38.566406 C 210.644531 38.917969 212.398438 39.308594 214.140625 39.746094 C 215.882812 40.183594 217.613281 40.660156 219.332031 41.183594 C 221.050781 41.703125 222.753906 42.265625 224.445312 42.871094 C 226.136719 43.476562 227.8125 44.125 229.472656 44.8125 C 231.132812 45.5 232.773438 46.226562 234.398438 46.996094 C 236.019531 47.765625 237.625 48.570312 239.207031 49.417969 C 240.792969 50.265625 242.355469 51.152344 243.894531 52.078125 C 245.433594 53 246.949219 53.960938 248.445312 54.960938 C 249.9375 55.960938 251.40625 56.992188 252.847656 58.066406 C 254.289062 59.136719 255.703125 60.242188 257.089844 61.382812 C 258.480469 62.523438 259.839844 63.695312 261.167969 64.902344 C 262.496094 66.113281 263.796875 67.351562 265.066406 68.621094 C 266.335938 69.894531 267.570312 71.195312 268.777344 72.527344 C 269.980469 73.859375 271.152344 75.21875 272.292969 76.609375 C 273.429688 78 274.53125 79.417969 275.601562 80.859375 C 276.667969 82.304688 277.703125 83.773438 278.699219 85.269531 C 279.691406 86.765625 280.652344 88.28125 281.574219 89.824219 C 282.496094 91.367188 283.378906 92.929688 284.222656 94.515625 C 285.066406 96.101562 285.871094 97.707031 286.636719 99.332031 C 287.402344 100.957031 288.128906 102.597656 288.8125 104.257812 C 289.496094 105.921875 290.140625 107.597656 290.742188 109.289062 C 291.34375 110.980469 291.902344 112.6875 292.421875 114.40625 C 292.941406 116.128906 293.417969 117.859375 293.847656 119.601562 C 294.28125 121.34375 294.671875 123.097656 295.019531 124.859375 C 295.367188 126.625 295.667969 128.394531 295.929688 130.171875 C 296.1875 131.949219 296.402344 133.730469 296.578125 135.519531 C 296.75 137.304688 296.875 139.097656 296.960938 140.890625 C 297.042969 142.6875 297.082031 144.480469 297.078125 146.277344 C 297.078125 166.203125 281.304688 202.738281 260.132812 237.824219 C 239.160156 272.910156 213.625 307.578125 196.804688 329.59375 C 196.53125 329.960938 196.242188 330.308594 195.929688 330.636719 C 195.621094 330.96875 195.289062 331.277344 194.941406 331.570312 C 194.59375 331.863281 194.230469 332.132812 193.851562 332.382812 C 193.472656 332.632812 193.082031 332.859375 192.675781 333.0625 C 192.269531 333.269531 191.855469 333.449219 191.425781 333.601562 C 191 333.757812 190.566406 333.886719 190.125 333.992188 C 189.683594 334.097656 189.238281 334.175781 188.785156 334.230469 C 188.335938 334.28125 187.882812 334.308594 187.429688 334.308594 C 186.976562 334.308594 186.523438 334.28125 186.070312 334.230469 C 185.621094 334.175781 185.175781 334.097656 184.734375 333.992188 C 184.292969 333.886719 183.859375 333.757812 183.429688 333.601562 C 183.003906 333.449219 182.589844 333.269531 182.183594 333.0625 C 181.777344 332.859375 181.386719 332.632812 181.007812 332.382812 C 180.625 332.132812 180.261719 331.863281 179.917969 331.570312 C 179.570312 331.277344 179.238281 330.96875 178.929688 330.636719 C 178.617188 330.308594 178.324219 329.960938 178.054688 329.59375 C 161.234375 307.578125 135.710938 272.910156 114.738281 237.824219 C 93.554688 202.738281 77.578125 166.203125 77.578125 146.277344 C 77.574219 144.480469 77.617188 142.683594 77.699219 140.886719 C 77.785156 139.089844 77.914062 137.296875 78.085938 135.507812 C 78.261719 133.71875 78.476562 131.933594 78.738281 130.15625 C 79 128.375 79.304688 126.605469 79.652344 124.839844 C 80 123.074219 80.390625 121.320312 80.828125 119.578125 C 81.261719 117.832031 81.738281 116.097656 82.257812 114.378906 C 82.777344 112.65625 83.339844 110.949219 83.945312 109.253906 C 84.546875 107.5625 85.191406 105.882812 85.878906 104.222656 C 86.566406 102.558594 87.292969 100.914062 88.058594 99.289062 C 88.828125 97.664062 89.632812 96.058594 90.480469 94.46875 C 91.328125 92.882812 92.210938 91.320312 93.136719 89.777344 C 94.058594 88.234375 95.019531 86.714844 96.019531 85.21875 C 97.015625 83.722656 98.050781 82.253906 99.121094 80.808594 C 100.191406 79.363281 101.296875 77.945312 102.4375 76.554688 C 103.578125 75.167969 104.753906 73.804688 105.960938 72.472656 C 107.167969 71.140625 108.40625 69.839844 109.679688 68.566406 C 110.949219 67.296875 112.25 66.054688 113.582031 64.847656 C 114.917969 63.640625 116.277344 62.46875 117.667969 61.328125 C 119.058594 60.1875 120.476562 59.082031 121.921875 58.011719 C 123.363281 56.941406 124.835938 55.90625 126.332031 54.90625 C 127.824219 53.910156 129.34375 52.949219 130.886719 52.023438 C 132.429688 51.101562 133.996094 50.214844 135.582031 49.371094 C 137.167969 48.523438 138.773438 47.714844 140.402344 46.949219 C 142.027344 46.179688 143.671875 45.453125 145.332031 44.769531 C 146.996094 44.082031 148.671875 43.4375 150.367188 42.832031 C 152.058594 42.230469 153.765625 41.667969 155.488281 41.148438 C 157.210938 40.628906 158.941406 40.148438 160.6875 39.714844 C 162.433594 39.28125 164.1875 38.890625 165.953125 38.542969 C 167.714844 38.191406 169.488281 37.886719 171.265625 37.628906 C 173.042969 37.367188 174.828125 37.148438 176.617188 36.976562 C 178.410156 36.804688 180.203125 36.671875 181.996094 36.589844 C 183.792969 36.503906 185.589844 36.464844 187.390625 36.464844 Z M 187.46875 36.464844 " fill-opacity="1" fill-rule="nonzero"/></g><path fill="#007031" d="M 253.074219 136.945312 C 252.613281 137.644531 252.015625 138.199219 251.28125 138.601562 C 250.546875 139.007812 249.761719 139.21875 248.921875 139.234375 C 247.886719 139.183594 246.917969 138.902344 246.015625 138.390625 L 243.726562 136.730469 L 243.726562 195.4375 C 243.71875 195.769531 243.679688 196.101562 243.605469 196.425781 C 243.535156 196.75 243.429688 197.066406 243.296875 197.371094 C 243.164062 197.675781 243 197.964844 242.808594 198.238281 C 242.617188 198.511719 242.402344 198.765625 242.164062 198.996094 C 241.921875 199.226562 241.660156 199.433594 241.382812 199.613281 C 241.101562 199.792969 240.804688 199.945312 240.496094 200.066406 C 240.183594 200.1875 239.863281 200.277344 239.535156 200.339844 C 239.207031 200.398438 238.878906 200.425781 238.542969 200.417969 L 205.320312 200.417969 L 205.320312 146.851562 L 169.617188 146.851562 L 169.617188 200.417969 L 136.21875 200.417969 C 135.894531 200.414062 135.570312 200.378906 135.253906 200.3125 C 134.933594 200.246094 134.625 200.148438 134.324219 200.023438 C 134.023438 199.894531 133.738281 199.742188 133.46875 199.558594 C 133.199219 199.378906 132.945312 199.171875 132.714844 198.941406 C 132.484375 198.710938 132.28125 198.460938 132.097656 198.191406 C 131.914062 197.921875 131.761719 197.632812 131.636719 197.335938 C 131.507812 197.035156 131.410156 196.722656 131.34375 196.40625 C 131.277344 196.085938 131.242188 195.765625 131.238281 195.4375 L 131.238281 136.730469 L 128.949219 138.390625 C 128.667969 138.570312 128.371094 138.71875 128.0625 138.839844 C 127.753906 138.960938 127.433594 139.054688 127.105469 139.113281 C 126.777344 139.171875 126.449219 139.203125 126.117188 139.199219 C 125.78125 139.195312 125.453125 139.160156 125.128906 139.09375 C 124.800781 139.027344 124.484375 138.929688 124.175781 138.800781 C 123.871094 138.671875 123.578125 138.519531 123.300781 138.332031 C 123.023438 138.148438 122.765625 137.941406 122.527344 137.707031 C 122.292969 137.472656 122.078125 137.21875 121.890625 136.945312 C 121.695312 136.671875 121.523438 136.386719 121.386719 136.082031 C 121.246094 135.777344 121.140625 135.460938 121.0625 135.136719 C 120.988281 134.8125 120.945312 134.480469 120.9375 134.144531 C 120.925781 133.8125 120.953125 133.480469 121.011719 133.148438 C 121.066406 132.820312 121.160156 132.5 121.28125 132.1875 C 121.40625 131.878906 121.558594 131.582031 121.738281 131.300781 C 121.921875 131.019531 122.132812 130.761719 122.367188 130.523438 C 122.601562 130.285156 122.859375 130.074219 123.136719 129.886719 L 184.589844 88.773438 C 185.488281 88.257812 186.457031 88 187.496094 88 C 188.535156 88 189.503906 88.257812 190.402344 88.773438 L 251.640625 129.886719 C 251.933594 130.058594 252.207031 130.257812 252.457031 130.488281 C 252.710938 130.714844 252.933594 130.96875 253.132812 131.242188 C 253.332031 131.519531 253.5 131.8125 253.636719 132.125 C 253.773438 132.433594 253.875 132.757812 253.941406 133.089844 C 254.011719 133.421875 254.046875 133.757812 254.042969 134.097656 C 254.042969 134.4375 254.003906 134.773438 253.933594 135.105469 C 253.859375 135.4375 253.753906 135.757812 253.613281 136.070312 C 253.472656 136.378906 253.304688 136.671875 253.101562 136.945312 Z M 253.074219 136.945312 " fill-opacity="1" fill-rule="nonzero"/><g clip-path="url(#20b7cfd546)"><path fill="#007031" d="M 226.886719 83.101562 L 227.285156 84.042969 C 227.480469 84.503906 227.929688 84.78125 228.40625 84.78125 C 228.5625 84.78125 228.722656 84.75 228.878906 84.683594 C 229.496094 84.421875 229.78125 83.710938 229.519531 83.09375 L 229.121094 82.152344 C 228.847656 81.507812 228.949219 80.769531 229.390625 80.222656 C 230.535156 78.800781 230.660156 76.800781 229.703125 75.246094 L 229.21875 74.460938 C 228.867188 73.890625 228.121094 73.714844 227.550781 74.066406 C 226.976562 74.417969 226.800781 75.164062 227.152344 75.734375 L 227.636719 76.519531 C 228.054688 77.199219 228 78.078125 227.496094 78.703125 C 226.496094 79.949219 226.261719 81.632812 226.886719 83.101562 Z M 226.886719 83.101562 " fill-opacity="1" fill-rule="nonzero"/></g><g clip-path="url(#28b640040a)"><path fill="#007031" d="M 232.550781 83.101562 L 232.953125 84.042969 C 233.148438 84.503906 233.597656 84.78125 234.070312 84.78125 C 234.226562 84.78125 234.390625 84.75 234.542969 84.683594 C 235.160156 84.421875 235.449219 83.707031 235.1875 83.09375 L 234.785156 82.15625 C 234.511719 81.507812 234.617188 80.769531 235.054688 80.222656 C 236.199219 78.800781 236.324219 76.800781 235.367188 75.246094 L 234.882812 74.460938 C 234.53125 73.890625 233.785156 73.714844 233.214844 74.066406 C 232.640625 74.417969 232.464844 75.164062 232.816406 75.734375 L 233.300781 76.519531 C 233.722656 77.199219 233.667969 78.078125 233.164062 78.703125 C 232.164062 79.945312 231.929688 81.632812 232.550781 83.101562 Z M 232.550781 83.101562 " fill-opacity="1" fill-rule="nonzero"/></g><g clip-path="url(#9efd76a80a)"><path fill="#007031" d="M 238.21875 83.101562 L 238.617188 84.042969 C 238.8125 84.503906 239.261719 84.78125 239.734375 84.78125 C 239.890625 84.78125 240.054688 84.75 240.207031 84.683594 C 240.824219 84.421875 241.113281 83.710938 240.851562 83.09375 L 240.453125 82.15625 C 240.179688 81.507812 240.28125 80.769531 240.71875 80.222656 C 241.863281 78.800781 241.992188 76.800781 241.03125 75.246094 L 240.550781 74.460938 C 240.199219 73.890625 239.449219 73.714844 238.878906 74.066406 C 238.308594 74.417969 238.128906 75.164062 238.484375 75.734375 L 238.964844 76.519531 C 239.386719 77.199219 239.332031 78.078125 238.828125 78.699219 C 237.828125 79.945312 237.59375 81.628906 238.21875 83.101562 Z M 238.21875 83.101562 " fill-opacity="1" fill-rule="nonzero"/></g><g clip-path="url(#f43b2cacd4)"><path fill="#007031" d="M 253.671875 126.308594 L 242.523438 119.527344 L 242.523438 92.648438 L 244.691406 92.648438 C 245.179688 92.648438 245.578125 92.25 245.578125 91.761719 L 245.578125 88.613281 C 245.578125 88.121094 245.183594 87.726562 244.691406 87.726562 L 223.527344 87.726562 C 223.039062 87.726562 222.640625 88.121094 222.640625 88.613281 L 222.640625 91.761719 C 222.640625 92.25 223.039062 92.648438 223.527344 92.648438 L 225.695312 92.648438 L 225.695312 109.296875 L 212.902344 101.519531 C 211.925781 100.925781 210.644531 101.234375 210.046875 102.214844 C 209.449219 103.199219 209.761719 104.476562 210.742188 105.074219 L 251.511719 129.859375 C 251.847656 130.066406 252.222656 130.164062 252.589844 130.164062 C 253.292969 130.164062 253.980469 129.808594 254.371094 129.164062 C 254.964844 128.183594 254.652344 126.902344 253.671875 126.308594 Z M 253.671875 126.308594 " fill-opacity="1" fill-rule="nonzero"/></g><g clip-path="url(#4e1363f7c7)"><path fill="#007031" d="M 187.5 69.046875 C 172.921875 83.625 88.539062 152.050781 88.539062 152.050781 L 122.527344 152.050781 L 122.527344 225.339844 L 161.492188 225.339844 L 161.492188 186.664062 C 161.527344 172.652344 172.894531 161.3125 186.90625 161.308594 C 200.917969 161.308594 212.285156 172.652344 212.320312 186.664062 L 212.320312 225.339844 L 252.464844 225.339844 L 252.464844 152.050781 L 286.457031 152.050781 C 286.457031 152.050781 203.226562 84.773438 187.5 69.046875 Z M 187.5 69.046875 " fill-opacity="1" fill-rule="nonzero"/></g></svg>